# xmcd CD database file
#
# Track frame offsets:
#	150
#	37047
#	58995
#	92697
#	142212
#	169302
#	199462
#	232452
#	263460
#
# Disc length: 3898 seconds
#
# Revision: 0
# Processed by: cddbd v1.5.1PL0 Copyright (c) Steve Scherf et al.
# Submitted via: CDex 1.50Beta6
#
DISCID=900f3809
DTITLE=Pat Metheny - The Complete Move To The Groove Session
DYEAR=2004
DGENRE=Jazz
TTITLE0=Sassy Samba
TTITLE1=Arthurdoc
TTITLE2=Guitar Improvisation
TTITLE3=All The Things You Are
TTITLE4=Is That So?
TTITLE5=I Waited For You
TTITLE6=Move To The Groove
TTITLE7=Koputai
TTITLE8=I Could See Forever
EXTD=YEAR: 2004
EXTT0=
EXTT1=
EXTT2=
EXTT3=
EXTT4=
EXTT5=
EXTT6=
EXTT7=
EXTT8=
PLAYORDER=
